<svg width="1920" height="1082" viewBox="0 0 1920 1082" fill="none" xmlns="http://www.w3.org/2000/svg">
<path d="M0 0H1920V1080H0V0Z" fill="url(#paint0_linear_60_2)"/>
<mask id="mask0_60_2" style="mask-type:alpha" maskUnits="userSpaceOnUse" x="0" y="2" width="1920" height="1080">
<path d="M0 2H1920V1082H0V2Z" fill="url(#paint1_linear_60_2)"/>
</mask>
<g mask="url(#mask0_60_2)">
<ellipse cx="1489.44" cy="1147.44" rx="565.44" ry="565.44" fill="#FFC0C6" fill-opacity="0.3"/>
<path d="M1394.75 -199.377C1394.75 40.9345 1199.94 235.746 959.625 235.746C719.312 235.746 524.5 40.9345 524.5 -199.377C524.5 -439.689 719.312 -634.5 959.625 -634.5C1199.94 -634.5 1394.75 -439.689 1394.75 -199.377Z" stroke="#FFC371"/>
<path d="M1816.21 -309.145C1816.21 163.254 1433.25 546.21 960.855 546.21C488.455 546.21 105.5 163.254 105.5 -309.145C105.5 -781.545 488.455 -1164.5 960.855 -1164.5C1433.25 -1164.5 1816.21 -781.545 1816.21 -309.145Z" stroke="#FFC371"/>
<circle cx="897.575" cy="-362.425" r="1317.07" stroke="#FFC371"/>
</g>
<defs>
<linearGradient id="paint0_linear_60_2" x1="960" y1="464.4" x2="983.688" y2="1669.07" gradientUnits="userSpaceOnUse">
<stop stop-color="#FF5F6D"/>
<stop offset="1" stop-color="#FFC371"/>
</linearGradient>
<linearGradient id="paint1_linear_60_2" x1="960" y1="466.4" x2="983.688" y2="1671.07" gradientUnits="userSpaceOnUse">
<stop stop-color="#FF5F6D"/>
<stop offset="1" stop-color="#FFC371"/>
</linearGradient>
</defs>
</svg>
